# xmcd
#
# Track frame offsets:
#	150
#	18105
#	38055
#	57005
#	78627
#	98830
#	111250
#	127962
#	149307
#	170085
#
# Disc length: 2494 seconds
#
# Revision: 1
# Processed by: cddbd v1.5.1PL0 Copyright (c) Steve Scherf et al.
# Submitted via: CDmax 2.0
#
DISCID=7d09bc0a
DTITLE=Elwood - The parlance of our time
DYEAR=2000
DGENRE=Hiphop
TTITLE0=Sundown
TTITLE1=Slow
TTITLE2=Red wagon
TTITLE3=Picture of you
TTITLE4=Forty five
TTITLE5=Bush
TTITLE6=Peaches
TTITLE7=Dive
TTITLE8=Love hook
TTITLE9=Stockboy
EXTD=
EXTT0=
EXTT1=
EXTT2=
EXTT3=
EXTT4=
EXTT5=
EXTT6=
EXTT7=
EXTT8=
EXTT9=
PLAYORDER=
